<svg xmlns="http://www.w3.org/2000/svg" width="2400" height="1350" viewBox="0 0 2400 1350" role="img" aria-label="Glass bridge over a financial city">
  <defs>
    <linearGradient id="g0" x1="0" y1="0" x2="1" y2="1">
      <stop offset="0" stop-color="#05070c"/>
      <stop offset="1" stop-color="#0b1020"/>
    </linearGradient>
    <radialGradient id="goldGlow" cx="30%" cy="24%" r="70%">
      <stop offset="0" stop-color="rgba(212,175,55,.26)"/>
      <stop offset="0.55" stop-color="rgba(212,175,55,.08)"/>
      <stop offset="1" stop-color="rgba(212,175,55,0)"/>
    </radialGradient>
    <radialGradient id="blueGlow" cx="80%" cy="18%" r="70%">
      <stop offset="0" stop-color="rgba(120,180,255,.10)"/>
      <stop offset="1" stop-color="rgba(120,180,255,0)"/>
    </radialGradient>
    <filter id="blur" x="-20%" y="-20%" width="140%" height="140%">
      <feGaussianBlur stdDeviation="8"/>
    </filter>
  </defs>

  <rect width="2400" height="1350" fill="url(#g0)"/>
  <rect width="2400" height="1350" fill="url(#goldGlow)"/>
  <rect width="2400" height="1350" fill="url(#blueGlow)"/>

  <g opacity="0.8"><path d="M 1202.3 504.1 Q 1192.9 663.5 1244.8 474.6" stroke="rgba(243,210,122,0.073)" stroke-width="1.90" fill="none"/><path d="M 2537.2 717.3 Q 2731.3 1172.3 2411.4 1327.3" stroke="rgba(243,210,122,0.130)" stroke-width="1.33" fill="none"/><path d="M 832.8 284.3 Q 719.0 488.8 983.6 534.5" stroke="rgba(243,210,122,0.124)" stroke-width="1.57" fill="none"/><path d="M 856.8 1278.8 Q 501.6 678.4 -93.2 56.9" stroke="rgba(243,210,122,0.136)" stroke-width="1.52" fill="none"/><path d="M 346.4 1051.9 Q 710.9 1215.3 350.0 1256.5" stroke="rgba(243,210,122,0.090)" stroke-width="1.24" fill="none"/><path d="M 448.0 798.3 Q -47.6 606.0 -8.9 169.4" stroke="rgba(243,210,122,0.073)" stroke-width="2.14" fill="none"/><path d="M 1516.0 999.0 Q 671.9 593.2 363.1 -31.1" stroke="rgba(243,210,122,0.123)" stroke-width="1.62" fill="none"/><path d="M 454.4 886.8 Q 1241.2 764.3 1799.9 312.6" stroke="rgba(243,210,122,0.126)" stroke-width="1.94" fill="none"/><path d="M 340.7 710.1 Q 1466.6 740.8 2428.9 944.2" stroke="rgba(243,210,122,0.099)" stroke-width="2.03" fill="none"/><path d="M 2410.6 1304.7 Q 1434.6 962.2 611.8 802.6" stroke="rgba(243,210,122,0.124)" stroke-width="1.34" fill="none"/><path d="M 2504.8 195.0 Q 1892.8 -35.3 1980.4 127.4" stroke="rgba(243,210,122,0.118)" stroke-width="1.49" fill="none"/><path d="M 537.6 434.2 Q 881.9 876.0 1841.0 1447.7" stroke="rgba(243,210,122,0.120)" stroke-width="1.36" fill="none"/><path d="M 1248.8 541.3 Q 624.2 266.9 -112.2 255.3" stroke="rgba(243,210,122,0.133)" stroke-width="1.42" fill="none"/><path d="M 1431.0 773.0 Q 2007.1 499.8 2399.1 354.5" stroke="rgba(243,210,122,0.117)" stroke-width="1.03" fill="none"/></g>
  <g><circle cx="1722.1" cy="1096.7" r="4.9" fill="rgba(212,175,55,0.109)"/><circle cx="2347.8" cy="1128.3" r="3.7" fill="rgba(212,175,55,0.127)"/><circle cx="136.1" cy="961.3" r="2.5" fill="rgba(212,175,55,0.061)"/><circle cx="735.4" cy="665.3" r="4.2" fill="rgba(212,175,55,0.111)"/><circle cx="1640.6" cy="172.2" r="5.0" fill="rgba(212,175,55,0.055)"/><circle cx="1744.0" cy="292.5" r="2.5" fill="rgba(212,175,55,0.078)"/><circle cx="1233.4" cy="920.3" r="4.7" fill="rgba(212,175,55,0.122)"/><circle cx="2091.3" cy="207.5" r="3.2" fill="rgba(212,175,55,0.136)"/><circle cx="1141.1" cy="498.1" r="3.0" fill="rgba(212,175,55,0.135)"/><circle cx="381.3" cy="205.2" r="2.3" fill="rgba(212,175,55,0.110)"/><circle cx="362.2" cy="1151.2" r="2.5" fill="rgba(212,175,55,0.106)"/><circle cx="104.3" cy="873.6" r="4.8" fill="rgba(212,175,55,0.107)"/><circle cx="1011.5" cy="1027.9" r="3.3" fill="rgba(212,175,55,0.066)"/><circle cx="45.2" cy="551.2" r="2.4" fill="rgba(212,175,55,0.117)"/><circle cx="2064.1" cy="1068.2" r="2.6" fill="rgba(212,175,55,0.084)"/><circle cx="854.8" cy="54.6" r="2.3" fill="rgba(212,175,55,0.067)"/><circle cx="59.2" cy="681.6" r="2.7" fill="rgba(212,175,55,0.086)"/><circle cx="1815.8" cy="413.2" r="2.9" fill="rgba(212,175,55,0.074)"/><circle cx="2163.3" cy="292.3" r="2.7" fill="rgba(212,175,55,0.067)"/><circle cx="878.1" cy="914.3" r="5.0" fill="rgba(212,175,55,0.052)"/><circle cx="2120.0" cy="1217.2" r="4.9" fill="rgba(212,175,55,0.105)"/><circle cx="2092.1" cy="294.4" r="4.7" fill="rgba(212,175,55,0.085)"/><circle cx="754.5" cy="588.6" r="3.1" fill="rgba(212,175,55,0.058)"/><circle cx="1889.3" cy="555.9" r="2.1" fill="rgba(212,175,55,0.086)"/><circle cx="20.6" cy="1032.4" r="5.8" fill="rgba(212,175,55,0.128)"/><circle cx="1633.4" cy="342.9" r="3.8" fill="rgba(212,175,55,0.097)"/><circle cx="800.5" cy="1143.1" r="2.9" fill="rgba(212,175,55,0.062)"/><circle cx="1929.4" cy="36.0" r="4.2" fill="rgba(212,175,55,0.060)"/><circle cx="582.3" cy="1306.8" r="4.8" fill="rgba(212,175,55,0.140)"/><circle cx="599.9" cy="427.7" r="4.9" fill="rgba(212,175,55,0.131)"/><circle cx="1903.0" cy="924.7" r="2.1" fill="rgba(212,175,55,0.107)"/><circle cx="2201.4" cy="16.8" r="2.1" fill="rgba(212,175,55,0.132)"/><circle cx="1200.5" cy="262.7" r="3.7" fill="rgba(212,175,55,0.069)"/><circle cx="207.4" cy="59.0" r="2.3" fill="rgba(212,175,55,0.099)"/><circle cx="1616.0" cy="619.9" r="3.3" fill="rgba(212,175,55,0.069)"/><circle cx="1109.4" cy="1269.2" r="4.5" fill="rgba(212,175,55,0.101)"/><circle cx="942.3" cy="1159.9" r="5.9" fill="rgba(212,175,55,0.130)"/><circle cx="2351.1" cy="978.4" r="5.1" fill="rgba(212,175,55,0.071)"/></g>

  <g filter="url(#blur)" opacity="0.9">
    <circle cx="1752.0" cy="621.0" r="210" fill="rgba(255,255,255,.04)"/>
  </g>

  <g><circle cx="1752.0" cy="621.0" r="160" fill="none" stroke="rgba(212,175,55,0.180)" stroke-width="1.2"/><circle cx="1752.0" cy="621.0" r="215" fill="none" stroke="rgba(212,175,55,0.150)" stroke-width="1.2"/><circle cx="1752.0" cy="621.0" r="270" fill="none" stroke="rgba(212,175,55,0.120)" stroke-width="1.2"/><circle cx="1752.0" cy="621.0" r="325" fill="none" stroke="rgba(212,175,55,0.090)" stroke-width="1.2"/></g>

  <g>
    <rect x="1562.0" y="555.0" width="380" height="132" rx="26" fill="rgba(255,255,255,.05)" stroke="rgba(255,255,255,.10)"/>
    <text x="1752.0" y="613.0" text-anchor="middle" font-family="ui-sans-serif,system-ui" font-size="50" fill="rgba(245,247,255,.92)" letter-spacing="2">W3</text>
    <text x="1752.0" y="655.0" text-anchor="middle" font-family="ui-sans-serif,system-ui" font-size="22" fill="rgba(245,247,255,.60)" letter-spacing="1">w3.mortgage</text>
  </g>

  <g opacity="0.9">
    <circle cx="432.0" cy="1053.0" r="280" fill="rgba(212,175,55,.06)"/>
    <circle cx="432.0" cy="1053.0" r="279" fill="none" stroke="rgba(255,255,255,.06)"/>
  </g>
</svg>